<svg width="386" height="89" viewBox="0 0 386 89" fill="none" xmlns="http://www.w3.org/2000/svg">
<path d="M4.497 60.315C2.901 60.315 1.767 59.475 1.095 57.795C0.465 56.115 0.15 53.427 0.15 49.731C0.15 44.271 0.927 39.084 2.481 34.17C2.859 32.952 3.468 32.07 4.308 31.524C5.19 30.936 6.408 30.642 7.962 30.642C8.802 30.642 9.39 30.747 9.726 30.957C10.062 31.167 10.23 31.566 10.23 32.154C10.23 32.826 9.915 34.338 9.285 36.69C8.865 38.37 8.529 39.84 8.277 41.1C8.025 42.318 7.815 43.851 7.647 45.699C8.781 42.423 10.125 39.651 11.679 37.383C13.275 35.115 14.892 33.435 16.53 32.343C18.21 31.209 19.785 30.642 21.255 30.642C22.725 30.642 23.754 30.978 24.342 31.65C24.972 32.322 25.287 33.351 25.287 34.737C25.287 36.081 24.888 38.517 24.09 42.045C23.754 43.557 23.523 44.691 23.397 45.447C25.497 40.281 27.828 36.522 30.39 34.17C32.952 31.818 35.346 30.642 37.572 30.642C40.302 30.642 41.667 32.007 41.667 34.737C41.667 36.375 41.205 39.336 40.281 43.62C39.483 47.274 39.084 49.689 39.084 50.865C39.084 52.545 39.693 53.385 40.911 53.385C41.751 53.385 42.738 52.881 43.872 51.873C45.048 50.823 46.602 49.143 48.534 46.833C49.038 46.245 49.605 45.951 50.235 45.951C50.781 45.951 51.201 46.203 51.495 46.707C51.831 47.211 51.999 47.904 51.999 48.786C51.999 50.466 51.6 51.768 50.802 52.692C48.996 54.918 47.043 56.745 44.943 58.173C42.885 59.601 40.533 60.315 37.887 60.315C35.745 60.315 34.128 59.706 33.036 58.488C31.944 57.228 31.398 55.422 31.398 53.07C31.398 51.894 31.692 49.794 32.28 46.77C32.826 44.124 33.099 42.297 33.099 41.289C33.099 40.617 32.868 40.281 32.406 40.281C31.86 40.281 31.083 40.995 30.075 42.423C29.067 43.809 28.059 45.657 27.051 47.967C26.043 50.277 25.224 52.713 24.594 55.275C24.132 57.291 23.586 58.635 22.956 59.307C22.368 59.979 21.402 60.315 20.058 60.315C18.672 60.315 17.622 59.664 16.908 58.362C16.236 57.018 15.9 55.401 15.9 53.511C15.9 51.915 16.11 49.605 16.53 46.581C16.866 43.893 17.034 42.129 17.034 41.289C17.034 40.617 16.803 40.281 16.341 40.281C15.711 40.281 14.913 41.037 13.947 42.549C12.981 44.061 12.036 45.993 11.112 48.345C10.23 50.697 9.516 53.007 8.97 55.275C8.508 57.249 7.962 58.593 7.332 59.307C6.744 59.979 5.799 60.315 4.497 60.315ZM68.9549 30.642C69.9209 30.642 70.5929 30.768 70.9709 31.02C71.3489 31.272 71.5379 31.692 71.5379 32.28C71.5379 33.288 70.9919 36.879 69.8999 43.053C68.9339 48.975 68.3669 52.482 68.1989 53.574C66.6449 64.368 64.5029 72.915 61.7729 79.215C59.0429 85.515 55.4099 88.665 50.8739 88.665C48.7319 88.665 46.9889 87.993 45.6449 86.649C44.3009 85.347 43.6289 83.625 43.6289 81.483C43.6289 79.509 44.0699 77.493 44.9519 75.435C45.8759 73.377 47.5559 71.004 49.9919 68.316C52.4699 65.67 55.9559 62.625 60.4499 59.181L60.6389 57.732C60.9329 56.178 61.2689 53.952 61.6469 51.054C60.8069 54.078 59.6309 56.388 58.1189 57.984C56.6069 59.538 55.0109 60.315 53.3309 60.315C51.4409 60.315 49.8869 59.454 48.6689 57.732C47.4929 55.968 46.9049 53.784 46.9049 51.18C46.9049 48.03 47.1149 45.153 47.5349 42.549C47.9549 39.903 48.6479 37.11 49.6139 34.17C50.0339 32.91 50.6219 32.007 51.3779 31.461C52.1339 30.915 53.3309 30.642 54.9689 30.642C55.8929 30.642 56.5229 30.789 56.8589 31.083C57.2369 31.377 57.4259 31.818 57.4259 32.406C57.4259 32.742 57.1949 33.876 56.7329 35.808C56.3129 37.362 55.9769 38.769 55.7249 40.029C55.3889 41.751 55.0949 43.41 54.8429 45.006C54.5909 46.56 54.4649 47.841 54.4649 48.849C54.4649 50.445 54.9059 51.243 55.7879 51.243C56.4179 51.243 57.1949 50.613 58.1189 49.353C59.0849 48.093 60.0929 46.182 61.1429 43.62C62.2349 41.058 63.2849 37.908 64.2929 34.17C64.6289 32.91 65.1329 32.007 65.8049 31.461C66.5189 30.915 67.5689 30.642 68.9549 30.642ZM51.5669 82.554C52.6169 82.554 53.7929 81.336 55.0949 78.9C56.3969 76.464 57.6989 72.411 59.0009 66.741C55.7669 69.471 53.4149 71.949 51.9449 74.175C50.5169 76.443 49.8029 78.417 49.8029 80.097C49.8029 80.811 49.9289 81.399 50.1809 81.861C50.4749 82.323 50.9369 82.554 51.5669 82.554ZM119.976 45.951C120.522 45.951 120.942 46.203 121.236 46.707C121.572 47.211 121.74 47.904 121.74 48.786C121.74 50.466 121.341 51.768 120.543 52.692C118.737 54.918 116.763 56.745 114.621 58.173C112.479 59.601 110.022 60.315 107.25 60.315C98.6825 60.315 94.3985 54.288 94.3985 42.234C94.3985 40.386 94.4615 38.517 94.5875 36.627H92.1305C90.8705 36.627 90.0095 36.396 89.5475 35.934C89.1275 35.472 88.9175 34.737 88.9175 33.729C88.9175 31.377 89.8625 30.201 91.7525 30.201H95.3435C96.0575 25.581 97.1495 21.36 98.6195 17.538C100.089 13.716 101.853 10.671 103.911 8.403C106.011 6.135 108.258 5.001 110.652 5.001C112.416 5.001 113.802 5.778 114.81 7.332C115.818 8.886 116.322 10.839 116.322 13.191C116.322 19.701 113.592 25.371 108.132 30.201H115.188C115.86 30.201 116.343 30.348 116.637 30.642C116.931 30.936 117.078 31.482 117.078 32.28C117.078 35.178 114.705 36.627 109.959 36.627H102.273C102.189 38.727 102.147 40.365 102.147 41.541C102.147 45.909 102.651 48.975 103.659 50.739C104.709 52.503 106.347 53.385 108.573 53.385C110.379 53.385 111.975 52.839 113.361 51.747C114.747 50.655 116.385 49.017 118.275 46.833C118.779 46.245 119.346 45.951 119.976 45.951ZM108.951 11.049C108.321 11.049 107.607 11.847 106.809 13.443C106.053 14.997 105.318 17.181 104.604 19.995C103.932 22.767 103.365 25.854 102.903 29.256C105.381 27.114 107.229 24.72 108.447 22.074C109.707 19.386 110.337 16.95 110.337 14.766C110.337 12.288 109.875 11.049 108.951 11.049ZM124.864 26.484C123.1 26.484 121.777 26.085 120.895 25.287C120.013 24.447 119.572 23.292 119.572 21.822C119.572 20.352 120.139 19.134 121.273 18.168C122.449 17.16 123.898 16.656 125.62 16.656C127.174 16.656 128.434 17.034 129.4 17.79C130.366 18.546 130.849 19.617 130.849 21.003C130.849 22.683 130.303 24.027 129.211 25.035C128.119 26.001 126.67 26.484 124.864 26.484ZM124.36 60.315C121.63 60.315 119.635 59.349 118.375 57.417C117.157 55.485 116.548 52.923 116.548 49.731C116.548 47.841 116.779 45.426 117.241 42.486C117.745 39.504 118.375 36.732 119.131 34.17C119.509 32.826 120.013 31.902 120.643 31.398C121.273 30.894 122.281 30.642 123.667 30.642C125.809 30.642 126.88 31.356 126.88 32.784C126.88 33.834 126.481 36.27 125.683 40.092C124.675 44.712 124.171 47.841 124.171 49.479C124.171 50.739 124.339 51.705 124.675 52.377C125.011 53.049 125.578 53.385 126.376 53.385C127.132 53.385 128.077 52.86 129.211 51.81C130.345 50.76 131.857 49.101 133.747 46.833C134.251 46.245 134.818 45.951 135.448 45.951C135.994 45.951 136.414 46.203 136.708 46.707C137.044 47.211 137.212 47.904 137.212 48.786C137.212 50.466 136.813 51.768 136.015 52.692C131.857 57.774 127.972 60.315 124.36 60.315ZM136.588 60.315C134.992 60.315 133.858 59.475 133.186 57.795C132.556 56.115 132.241 53.427 132.241 49.731C132.241 44.271 133.018 39.084 134.572 34.17C134.95 32.952 135.559 32.07 136.399 31.524C137.281 30.936 138.499 30.642 140.053 30.642C140.893 30.642 141.481 30.747 141.817 30.957C142.153 31.167 142.321 31.566 142.321 32.154C142.321 32.826 142.006 34.338 141.376 36.69C140.956 38.37 140.62 39.84 140.368 41.1C140.116 42.36 139.906 43.914 139.738 45.762C141.124 42.15 142.678 39.21 144.4 36.942C146.122 34.674 147.802 33.057 149.44 32.091C151.12 31.125 152.653 30.642 154.039 30.642C156.769 30.642 158.134 32.007 158.134 34.737C158.134 36.375 157.672 39.336 156.748 43.62C155.95 47.274 155.551 49.689 155.551 50.865C155.551 52.545 156.16 53.385 157.378 53.385C158.218 53.385 159.205 52.881 160.339 51.873C161.515 50.823 163.069 49.143 165.001 46.833C165.505 46.245 166.072 45.951 166.702 45.951C167.248 45.951 167.668 46.203 167.962 46.707C168.298 47.211 168.466 47.904 168.466 48.786C168.466 50.466 168.067 51.768 167.269 52.692C165.463 54.918 163.51 56.745 161.41 58.173C159.352 59.601 157 60.315 154.354 60.315C152.212 60.315 150.595 59.706 149.503 58.488C148.411 57.228 147.865 55.422 147.865 53.07C147.865 51.894 148.159 49.794 148.747 46.77C149.293 44.124 149.566 42.297 149.566 41.289C149.566 40.617 149.335 40.281 148.873 40.281C148.327 40.281 147.55 40.995 146.542 42.423C145.576 43.809 144.568 45.657 143.518 47.967C142.51 50.277 141.691 52.713 141.061 55.275C140.599 57.249 140.053 58.593 139.423 59.307C138.835 59.979 137.89 60.315 136.588 60.315ZM185.419 30.642C186.385 30.642 187.057 30.768 187.435 31.02C187.813 31.272 188.002 31.692 188.002 32.28C188.002 33.288 187.456 36.879 186.364 43.053C185.398 48.975 184.831 52.482 184.663 53.574C183.109 64.368 180.967 72.915 178.237 79.215C175.507 85.515 171.874 88.665 167.338 88.665C165.196 88.665 163.453 87.993 162.109 86.649C160.765 85.347 160.093 83.625 160.093 81.483C160.093 79.509 160.534 77.493 161.416 75.435C162.34 73.377 164.02 71.004 166.456 68.316C168.934 65.67 172.42 62.625 176.914 59.181L177.103 57.732C177.397 56.178 177.733 53.952 178.111 51.054C177.271 54.078 176.095 56.388 174.583 57.984C173.071 59.538 171.475 60.315 169.795 60.315C167.905 60.315 166.351 59.454 165.133 57.732C163.957 55.968 163.369 53.784 163.369 51.18C163.369 48.03 163.579 45.153 163.999 42.549C164.419 39.903 165.112 37.11 166.078 34.17C166.498 32.91 167.086 32.007 167.842 31.461C168.598 30.915 169.795 30.642 171.433 30.642C172.357 30.642 172.987 30.789 173.323 31.083C173.701 31.377 173.89 31.818 173.89 32.406C173.89 32.742 173.659 33.876 173.197 35.808C172.777 37.362 172.441 38.769 172.189 40.029C171.853 41.751 171.559 43.41 171.307 45.006C171.055 46.56 170.929 47.841 170.929 48.849C170.929 50.445 171.37 51.243 172.252 51.243C172.882 51.243 173.659 50.613 174.583 49.353C175.549 48.093 176.557 46.182 177.607 43.62C178.699 41.058 179.749 37.908 180.757 34.17C181.093 32.91 181.597 32.007 182.269 31.461C182.983 30.915 184.033 30.642 185.419 30.642ZM168.031 82.554C169.081 82.554 170.257 81.336 171.559 78.9C172.861 76.464 174.163 72.411 175.465 66.741C172.231 69.471 169.879 71.949 168.409 74.175C166.981 76.443 166.267 78.417 166.267 80.097C166.267 80.811 166.393 81.399 166.645 81.861C166.939 82.323 167.401 82.554 168.031 82.554ZM232.219 45.951C232.765 45.951 233.185 46.203 233.479 46.707C233.815 47.211 233.983 47.904 233.983 48.786C233.983 50.466 233.584 51.768 232.786 52.692C230.98 54.918 229.006 56.745 226.864 58.173C224.764 59.601 222.37 60.315 219.682 60.315C215.986 60.315 213.235 58.635 211.429 55.275C209.665 51.915 208.783 47.568 208.783 42.234C208.783 37.11 209.434 31.272 210.736 24.72C212.08 18.168 214.033 12.54 216.595 7.836C219.199 3.132 222.286 0.779996 225.856 0.779996C227.872 0.779996 229.447 1.725 230.581 3.615C231.757 5.463 232.345 8.13 232.345 11.616C232.345 16.614 230.959 22.41 228.187 29.004C225.415 35.598 221.656 42.129 216.91 48.597C217.204 50.319 217.687 51.558 218.359 52.314C219.031 53.028 219.913 53.385 221.005 53.385C222.727 53.385 224.239 52.902 225.541 51.936C226.843 50.928 228.502 49.227 230.518 46.833C231.022 46.245 231.589 45.951 232.219 45.951ZM224.47 7.017C223.504 7.017 222.412 8.76 221.194 12.246C219.976 15.732 218.905 20.058 217.981 25.224C217.057 30.39 216.553 35.346 216.469 40.092C219.451 35.178 221.824 30.264 223.588 25.35C225.352 20.394 226.234 15.879 226.234 11.805C226.234 8.613 225.646 7.017 224.47 7.017ZM237.144 26.484C235.38 26.484 234.057 26.085 233.175 25.287C232.293 24.447 231.852 23.292 231.852 21.822C231.852 20.352 232.419 19.134 233.553 18.168C234.729 17.16 236.178 16.656 237.9 16.656C239.454 16.656 240.714 17.034 241.68 17.79C242.646 18.546 243.129 19.617 243.129 21.003C243.129 22.683 242.583 24.027 241.491 25.035C240.399 26.001 238.95 26.484 237.144 26.484ZM236.64 60.315C233.91 60.315 231.915 59.349 230.655 57.417C229.437 55.485 228.828 52.923 228.828 49.731C228.828 47.841 229.059 45.426 229.521 42.486C230.025 39.504 230.655 36.732 231.411 34.17C231.789 32.826 232.293 31.902 232.923 31.398C233.553 30.894 234.561 30.642 235.947 30.642C238.089 30.642 239.16 31.356 239.16 32.784C239.16 33.834 238.761 36.27 237.963 40.092C236.955 44.712 236.451 47.841 236.451 49.479C236.451 50.739 236.619 51.705 236.955 52.377C237.291 53.049 237.858 53.385 238.656 53.385C239.412 53.385 240.357 52.86 241.491 51.81C242.625 50.76 244.137 49.101 246.027 46.833C246.531 46.245 247.098 45.951 247.728 45.951C248.274 45.951 248.694 46.203 248.988 46.707C249.324 47.211 249.492 47.904 249.492 48.786C249.492 50.466 249.093 51.768 248.295 52.692C244.137 57.774 240.252 60.315 236.64 60.315ZM277.911 40.659C278.457 40.659 278.877 40.932 279.171 41.478C279.465 42.024 279.612 42.717 279.612 43.557C279.612 44.607 279.465 45.426 279.171 46.014C278.877 46.56 278.415 46.938 277.785 47.148C275.265 48.03 272.493 48.534 269.469 48.66C268.629 52.146 267.033 54.96 264.681 57.102C262.371 59.244 259.809 60.315 256.995 60.315C252.753 60.315 249.666 58.698 247.734 55.464C245.802 52.23 244.836 47.547 244.836 41.415C244.836 35.997 245.508 30.117 246.852 23.775C248.196 17.391 250.149 11.973 252.711 7.521C255.315 3.027 258.402 0.779996 261.972 0.779996C263.904 0.779996 265.458 1.62 266.634 3.3C267.81 4.938 268.398 7.08 268.398 9.726C268.398 13.17 267.747 16.593 266.445 19.995C265.143 23.397 262.98 26.967 259.956 30.705C262.77 30.915 265.059 32.091 266.823 34.233C268.587 36.333 269.637 38.937 269.973 42.045C271.947 41.919 274.299 41.499 277.029 40.785C277.281 40.701 277.575 40.659 277.911 40.659ZM260.523 7.017C259.683 7.017 258.759 8.277 257.751 10.797C256.785 13.275 255.882 16.656 255.042 20.94C254.202 25.224 253.572 29.907 253.152 34.989C255.924 29.907 258.129 25.434 259.767 21.57C261.447 17.664 262.287 14.199 262.287 11.175C262.287 9.831 262.119 8.802 261.783 8.088C261.489 7.374 261.069 7.017 260.523 7.017ZM257.247 53.637C258.549 53.637 259.704 53.091 260.712 51.999C261.72 50.907 262.392 49.332 262.728 47.274C261.426 46.392 260.418 45.237 259.704 43.809C259.032 42.381 258.696 40.869 258.696 39.273C258.696 38.685 258.78 37.887 258.948 36.879H258.759C257.037 36.879 255.588 37.74 254.412 39.462C253.278 41.142 252.711 43.41 252.711 46.266C252.711 48.66 253.152 50.487 254.034 51.747C254.958 53.007 256.029 53.637 257.247 53.637ZM278.645 60.315C277.049 60.315 275.915 59.475 275.243 57.795C274.613 56.115 274.298 53.427 274.298 49.731C274.298 44.271 275.075 39.084 276.629 34.17C277.007 32.952 277.616 32.07 278.456 31.524C279.338 30.936 280.556 30.642 282.11 30.642C282.95 30.642 283.538 30.747 283.874 30.957C284.21 31.167 284.378 31.566 284.378 32.154C284.378 32.826 284.063 34.338 283.433 36.69C283.013 38.37 282.677 39.84 282.425 41.1C282.173 42.36 281.963 43.914 281.795 45.762C283.181 42.15 284.735 39.21 286.457 36.942C288.179 34.674 289.859 33.057 291.497 32.091C293.177 31.125 294.71 30.642 296.096 30.642C298.826 30.642 300.191 32.007 300.191 34.737C300.191 35.283 300.002 36.606 299.624 38.706C299.288 40.386 299.12 41.436 299.12 41.856C299.12 43.326 299.645 44.061 300.695 44.061C301.871 44.061 303.383 43.137 305.231 41.289C305.777 40.743 306.344 40.47 306.932 40.47C307.478 40.47 307.898 40.722 308.192 41.226C308.528 41.688 308.696 42.318 308.696 43.116C308.696 44.67 308.276 45.888 307.436 46.77C306.26 47.988 304.874 49.038 303.278 49.92C301.724 50.76 300.065 51.18 298.301 51.18C296.075 51.18 294.374 50.613 293.198 49.479C292.064 48.345 291.497 46.812 291.497 44.88C291.497 44.25 291.56 43.62 291.686 42.99C291.77 42.15 291.812 41.583 291.812 41.289C291.812 40.617 291.581 40.281 291.119 40.281C290.489 40.281 289.649 40.995 288.599 42.423C287.591 43.809 286.583 45.657 285.575 47.967C284.567 50.277 283.748 52.713 283.118 55.275C282.656 57.249 282.11 58.593 281.48 59.307C280.892 59.979 279.947 60.315 278.645 60.315ZM310.591 60.315C307.987 60.315 305.908 59.37 304.354 57.48C302.8 55.59 302.023 53.112 302.023 50.046C302.023 46.686 302.8 43.515 304.354 40.533C305.908 37.509 307.966 35.094 310.528 33.288C313.132 31.44 315.883 30.516 318.781 30.516C319.705 30.516 320.314 30.705 320.608 31.083C320.944 31.419 321.217 32.049 321.427 32.973C322.309 32.805 323.233 32.721 324.199 32.721C326.257 32.721 327.286 33.456 327.286 34.926C327.286 35.808 326.971 37.908 326.341 41.226C325.375 46.056 324.892 49.416 324.892 51.306C324.892 51.936 325.039 52.44 325.333 52.818C325.669 53.196 326.089 53.385 326.593 53.385C327.391 53.385 328.357 52.881 329.491 51.873C330.625 50.823 332.158 49.143 334.09 46.833C334.594 46.245 335.161 45.951 335.791 45.951C336.337 45.951 336.757 46.203 337.051 46.707C337.387 47.211 337.555 47.904 337.555 48.786C337.555 50.466 337.156 51.768 336.358 52.692C334.636 54.834 332.809 56.64 330.877 58.11C328.945 59.58 327.076 60.315 325.27 60.315C323.884 60.315 322.603 59.853 321.427 58.929C320.293 57.963 319.432 56.661 318.844 55.023C316.66 58.551 313.909 60.315 310.591 60.315ZM312.859 53.952C313.783 53.952 314.665 53.406 315.505 52.314C316.345 51.222 316.954 49.773 317.332 47.967L319.663 36.375C317.899 36.417 316.261 37.089 314.749 38.391C313.279 39.651 312.103 41.331 311.221 43.431C310.339 45.531 309.898 47.757 309.898 50.109C309.898 51.411 310.15 52.377 310.654 53.007C311.2 53.637 311.935 53.952 312.859 53.952ZM336.908 60.315C335.312 60.315 334.178 59.475 333.506 57.795C332.876 56.115 332.561 53.427 332.561 49.731C332.561 44.271 333.338 39.084 334.892 34.17C335.27 32.952 335.879 32.07 336.719 31.524C337.601 30.936 338.819 30.642 340.373 30.642C341.213 30.642 341.801 30.747 342.137 30.957C342.473 31.167 342.641 31.566 342.641 32.154C342.641 32.826 342.326 34.338 341.696 36.69C341.276 38.37 340.94 39.84 340.688 41.1C340.436 42.36 340.226 43.914 340.058 45.762C341.444 42.15 342.998 39.21 344.72 36.942C346.442 34.674 348.122 33.057 349.76 32.091C351.44 31.125 352.973 30.642 354.359 30.642C357.089 30.642 358.454 32.007 358.454 34.737C358.454 35.283 358.265 36.606 357.887 38.706C357.551 40.386 357.383 41.436 357.383 41.856C357.383 43.326 357.908 44.061 358.958 44.061C360.134 44.061 361.646 43.137 363.494 41.289C364.04 40.743 364.607 40.47 365.195 40.47C365.741 40.47 366.161 40.722 366.455 41.226C366.791 41.688 366.959 42.318 366.959 43.116C366.959 44.67 366.539 45.888 365.699 46.77C364.523 47.988 363.137 49.038 361.541 49.92C359.987 50.76 358.328 51.18 356.564 51.18C354.338 51.18 352.637 50.613 351.461 49.479C350.327 48.345 349.76 46.812 349.76 44.88C349.76 44.25 349.823 43.62 349.949 42.99C350.033 42.15 350.075 41.583 350.075 41.289C350.075 40.617 349.844 40.281 349.382 40.281C348.752 40.281 347.912 40.995 346.862 42.423C345.854 43.809 344.846 45.657 343.838 47.967C342.83 50.277 342.011 52.713 341.381 55.275C340.919 57.249 340.373 58.593 339.743 59.307C339.155 59.979 338.21 60.315 336.908 60.315ZM383.155 30.642C384.121 30.642 384.793 30.768 385.171 31.02C385.549 31.272 385.738 31.692 385.738 32.28C385.738 33.288 385.192 36.879 384.1 43.053C383.134 48.975 382.567 52.482 382.399 53.574C380.845 64.368 378.703 72.915 375.973 79.215C373.243 85.515 369.61 88.665 365.074 88.665C362.932 88.665 361.189 87.993 359.845 86.649C358.501 85.347 357.829 83.625 357.829 81.483C357.829 79.509 358.27 77.493 359.152 75.435C360.076 73.377 361.756 71.004 364.192 68.316C366.67 65.67 370.156 62.625 374.65 59.181L374.839 57.732C375.133 56.178 375.469 53.952 375.847 51.054C375.007 54.078 373.831 56.388 372.319 57.984C370.807 59.538 369.211 60.315 367.531 60.315C365.641 60.315 364.087 59.454 362.869 57.732C361.693 55.968 361.105 53.784 361.105 51.18C361.105 48.03 361.315 45.153 361.735 42.549C362.155 39.903 362.848 37.11 363.814 34.17C364.234 32.91 364.822 32.007 365.578 31.461C366.334 30.915 367.531 30.642 369.169 30.642C370.093 30.642 370.723 30.789 371.059 31.083C371.437 31.377 371.626 31.818 371.626 32.406C371.626 32.742 371.395 33.876 370.933 35.808C370.513 37.362 370.177 38.769 369.925 40.029C369.589 41.751 369.295 43.41 369.043 45.006C368.791 46.56 368.665 47.841 368.665 48.849C368.665 50.445 369.106 51.243 369.988 51.243C370.618 51.243 371.395 50.613 372.319 49.353C373.285 48.093 374.293 46.182 375.343 43.62C376.435 41.058 377.485 37.908 378.493 34.17C378.829 32.91 379.333 32.007 380.005 31.461C380.719 30.915 381.769 30.642 383.155 30.642ZM365.767 82.554C366.817 82.554 367.993 81.336 369.295 78.9C370.597 76.464 371.899 72.411 373.201 66.741C369.967 69.471 367.615 71.949 366.145 74.175C364.717 76.443 364.003 78.417 364.003 80.097C364.003 80.811 364.129 81.399 364.381 81.861C364.675 82.323 365.137 82.554 365.767 82.554Z" fill="black"/>
</svg>
