<svg width="574" height="90" viewBox="0 0 574 90" fill="none" xmlns="http://www.w3.org/2000/svg">
<path d="M12.852 55.92C12.852 57.894 12.999 59.469 13.293 60.645C13.587 61.821 14.112 62.955 14.868 64.047L15.624 65.055L14.868 66H3.843L3.15 64.047L4.473 63.732C5.523 63.48 6.216 63.039 6.552 62.409C6.93 61.737 7.119 60.603 7.119 59.007V41.304C7.119 40.8 7.014 40.443 6.804 40.233C6.636 40.023 6.321 39.918 5.859 39.918H3.087L2.52 38.28C3.738 37.188 5.124 36.285 6.678 35.571C8.274 34.857 9.66 34.5 10.836 34.5C11.424 34.5 11.907 34.689 12.285 35.067C12.663 35.445 12.852 35.928 12.852 36.516V43.257C13.944 40.485 15.54 38.238 17.64 36.516C19.74 34.752 21.945 33.87 24.255 33.87C26.817 33.87 28.749 34.626 30.051 36.138C31.353 37.65 32.109 40.023 32.319 43.257C33.411 40.485 35.007 38.238 37.107 36.516C39.207 34.752 41.412 33.87 43.722 33.87C46.536 33.87 48.573 34.773 49.833 36.579C51.135 38.385 51.786 41.262 51.786 45.21V60.456C51.786 61.884 52.416 62.598 53.676 62.598C54.642 62.598 55.692 62.157 56.826 61.275L58.023 62.913C56.931 64.131 55.755 65.097 54.495 65.811C53.235 66.525 52.059 66.882 50.967 66.882C49.245 66.882 48.006 66.357 47.25 65.307C46.494 64.257 46.116 62.556 46.116 60.204V45.21C46.116 40.926 44.562 38.784 41.454 38.784C39.69 38.784 38.136 39.477 36.792 40.863C35.448 42.207 34.377 44.118 33.579 46.596C32.781 49.074 32.361 51.93 32.319 55.164V55.92C32.319 58.104 32.487 59.847 32.823 61.149C33.201 62.409 33.957 63.711 35.091 65.055L34.335 66H26.649V45.21C26.649 40.926 25.095 38.784 21.987 38.784C20.181 38.784 18.585 39.498 17.199 40.926C15.855 42.354 14.784 44.37 13.986 46.974C13.23 49.578 12.852 52.56 12.852 55.92ZM77.6416 83.514C75.3316 83.514 73.3576 83.073 71.7196 82.191C70.0816 81.351 68.8636 80.238 68.0656 78.852C67.2676 77.508 66.8686 76.059 66.8686 74.505C66.8686 72.405 67.5826 70.599 69.0106 69.087C70.4386 67.617 72.3916 66.882 74.8696 66.882C75.2896 66.882 75.5836 66.945 75.7516 67.071C75.9616 67.239 76.0666 67.407 76.0666 67.575C76.0666 67.743 75.7726 68.142 75.1846 68.772C74.5966 69.402 74.0716 70.158 73.6096 71.04C73.1896 71.922 72.9796 73.035 72.9796 74.379C72.9796 76.059 73.4626 77.445 74.4286 78.537C75.4366 79.671 76.7806 80.238 78.4606 80.238C81.0646 80.238 82.9756 79.167 84.1936 77.025C85.4116 74.883 86.0206 72.006 86.0206 68.394V59.07C85.0546 60.918 83.6056 62.388 81.6736 63.48C79.7416 64.53 77.6206 65.055 75.3106 65.055C72.3286 65.055 69.9976 64.152 68.3176 62.346C66.6376 60.498 65.7976 57.915 65.7976 54.597V40.611C65.7976 40.107 65.6926 39.75 65.4826 39.54C65.3146 39.33 64.9996 39.225 64.5376 39.225H61.7656L61.1986 37.587C62.2906 36.495 63.6136 35.592 65.1676 34.878C66.7636 34.164 68.2126 33.807 69.5146 33.807C70.1026 33.807 70.5856 33.996 70.9636 34.374C71.3416 34.752 71.5306 35.235 71.5306 35.823V53.148C71.5306 55.668 72.0346 57.579 73.0426 58.881C74.0506 60.183 75.5206 60.834 77.4526 60.834C80.2666 60.834 82.4506 59.784 84.0046 57.684C85.6006 55.542 86.3986 52.602 86.3986 48.864C86.3986 45.42 86.2516 42.858 85.9576 41.178C85.6636 39.498 84.9916 37.965 83.9416 36.579L83.1856 35.571L83.9416 34.626L91.6276 33.807V67.386C91.6276 72.552 90.3676 76.521 87.8476 79.293C85.3696 82.107 81.9676 83.514 77.6416 83.514ZM126.954 60.456C126.954 61.884 127.584 62.598 128.844 62.598C129.894 62.598 130.944 62.157 131.994 61.275L133.191 62.913C132.099 64.131 130.923 65.097 129.663 65.811C128.403 66.525 127.227 66.882 126.135 66.882C124.413 66.882 123.174 66.357 122.418 65.307C121.662 64.257 121.284 62.556 121.284 60.204V23.538C121.284 23.034 121.179 22.677 120.969 22.467C120.801 22.257 120.486 22.152 120.024 22.152H117.252L116.685 20.514C117.903 19.422 119.289 18.519 120.843 17.805C122.397 17.091 123.783 16.734 125.001 16.734C125.589 16.734 126.072 16.923 126.45 17.301C126.828 17.679 127.017 18.162 127.017 18.75L126.954 60.456ZM139.917 24.546C139.917 23.748 140.358 22.866 141.24 21.9C142.164 20.892 143.004 20.388 143.76 20.388C144.558 20.388 145.419 20.871 146.343 21.837C147.267 22.803 147.729 23.706 147.729 24.546C147.729 25.344 147.267 26.226 146.343 27.192C145.419 28.158 144.558 28.641 143.76 28.641C143.046 28.641 142.227 28.158 141.303 27.192C140.379 26.226 139.917 25.344 139.917 24.546ZM146.595 60.456C146.595 61.884 147.225 62.598 148.485 62.598C149.535 62.598 150.585 62.157 151.635 61.275L152.832 62.913C151.74 64.131 150.564 65.097 149.304 65.811C148.044 66.525 146.868 66.882 145.776 66.882C144.054 66.882 142.815 66.357 142.059 65.307C141.303 64.257 140.925 62.556 140.925 60.204V40.674C140.925 40.17 140.82 39.813 140.61 39.603C140.442 39.393 140.127 39.288 139.665 39.288H136.893L136.326 37.65C137.544 36.558 138.93 35.655 140.484 34.941C142.038 34.227 143.424 33.87 144.642 33.87C145.23 33.87 145.713 34.059 146.091 34.437C146.469 34.815 146.658 35.298 146.658 35.886L146.595 60.456ZM173.907 34.689C173.907 35.571 173.781 36.369 173.529 37.083C173.277 37.797 172.92 38.322 172.458 38.658H165.717V58.944C165.717 60.246 165.906 61.17 166.284 61.716C166.662 62.262 167.271 62.535 168.111 62.535C169.371 62.535 170.799 61.863 172.395 60.519L173.592 62.157C172.5 63.585 171.198 64.74 169.686 65.622C168.174 66.462 166.746 66.882 165.402 66.882C163.68 66.882 162.336 66.357 161.37 65.307C160.446 64.215 159.984 62.724 159.984 60.834V38.658H154.44C154.44 37.524 154.524 36.789 154.692 36.453C154.86 36.117 155.28 35.865 155.952 35.697C158.178 35.109 159.753 34.164 160.677 32.862C161.643 31.518 162.336 29.796 162.756 27.696C162.882 27.024 163.092 26.604 163.386 26.436C163.722 26.268 164.499 26.184 165.717 26.184V34.689H173.907ZM195.379 34.689C195.379 35.571 195.253 36.369 195.001 37.083C194.749 37.797 194.392 38.322 193.93 38.658H187.189V58.944C187.189 60.246 187.378 61.17 187.756 61.716C188.134 62.262 188.743 62.535 189.583 62.535C190.843 62.535 192.271 61.863 193.867 60.519L195.064 62.157C193.972 63.585 192.67 64.74 191.158 65.622C189.646 66.462 188.218 66.882 186.874 66.882C185.152 66.882 183.808 66.357 182.842 65.307C181.918 64.215 181.456 62.724 181.456 60.834V38.658H175.912C175.912 37.524 175.996 36.789 176.164 36.453C176.332 36.117 176.752 35.865 177.424 35.697C179.65 35.109 181.225 34.164 182.149 32.862C183.115 31.518 183.808 29.796 184.228 27.696C184.354 27.024 184.564 26.604 184.858 26.436C185.194 26.268 185.971 26.184 187.189 26.184V34.689H195.379ZM208.534 60.456C208.534 61.884 209.164 62.598 210.424 62.598C211.474 62.598 212.524 62.157 213.574 61.275L214.771 62.913C213.679 64.131 212.503 65.097 211.243 65.811C209.983 66.525 208.807 66.882 207.715 66.882C205.993 66.882 204.754 66.357 203.998 65.307C203.242 64.257 202.864 62.556 202.864 60.204V23.538C202.864 23.034 202.759 22.677 202.549 22.467C202.381 22.257 202.066 22.152 201.604 22.152H198.832L198.265 20.514C199.483 19.422 200.869 18.519 202.423 17.805C203.977 17.091 205.363 16.734 206.581 16.734C207.169 16.734 207.652 16.923 208.03 17.301C208.408 17.679 208.597 18.162 208.597 18.75L208.534 60.456ZM245.5 61.275C243.946 63.081 242.098 64.467 239.956 65.433C237.814 66.399 235.504 66.882 233.026 66.882C230.128 66.882 227.587 66.21 225.403 64.866C223.219 63.522 221.518 61.632 220.3 59.196C219.124 56.76 218.536 53.946 218.536 50.754C218.536 47.394 219.208 44.454 220.552 41.934C221.896 39.372 223.786 37.398 226.222 36.012C228.7 34.584 231.577 33.87 234.853 33.87C237.163 33.87 239.116 34.311 240.712 35.193C242.35 36.033 243.568 37.167 244.366 38.595C245.164 39.981 245.563 41.493 245.563 43.131C245.563 44.895 245.08 46.596 244.114 48.234C243.19 49.872 241.825 51.216 240.019 52.266C238.213 53.274 236.05 53.778 233.53 53.778C232.186 53.778 230.695 53.526 229.057 53.022C227.419 52.518 226.6 51.783 226.6 50.817C226.6 50.481 226.684 50.166 226.852 49.872C227.062 49.578 227.293 49.431 227.545 49.431C227.671 49.431 228.091 49.578 228.805 49.872C229.519 50.124 230.443 50.25 231.577 50.25C234.097 50.25 236.05 49.536 237.436 48.108C238.864 46.68 239.578 45 239.578 43.068C239.578 41.43 239.053 40.023 238.003 38.847C236.953 37.629 235.483 37.02 233.593 37.02C230.905 37.02 228.805 38.217 227.293 40.611C225.781 42.963 225.025 46.344 225.025 50.754C225.025 54.492 225.823 57.432 227.419 59.574C229.015 61.674 231.325 62.724 234.349 62.724C238.045 62.724 241.111 61.527 243.547 59.133C243.715 58.965 243.904 58.881 244.114 58.881C244.45 58.881 244.807 59.091 245.185 59.511C245.563 59.889 245.752 60.288 245.752 60.708C245.752 60.918 245.668 61.107 245.5 61.275Z" fill="white"/>
<path d="M377.844 60.456C377.844 61.884 378.474 62.598 379.734 62.598C380.784 62.598 381.834 62.157 382.884 61.275L384.081 62.913C382.989 64.131 381.813 65.097 380.553 65.811C379.293 66.525 378.117 66.882 377.025 66.882C375.303 66.882 374.064 66.357 373.308 65.307C372.552 64.257 372.174 62.556 372.174 60.204V23.538C372.174 23.034 372.069 22.677 371.859 22.467C371.691 22.257 371.376 22.152 370.914 22.152H368.142L367.575 20.514C368.793 19.422 370.179 18.519 371.733 17.805C373.287 17.091 374.673 16.734 375.891 16.734C376.479 16.734 376.962 16.923 377.34 17.301C377.718 17.679 377.907 18.162 377.907 18.75L377.844 60.456ZM390.807 24.546C390.807 23.748 391.248 22.866 392.13 21.9C393.054 20.892 393.894 20.388 394.65 20.388C395.448 20.388 396.309 20.871 397.233 21.837C398.157 22.803 398.619 23.706 398.619 24.546C398.619 25.344 398.157 26.226 397.233 27.192C396.309 28.158 395.448 28.641 394.65 28.641C393.936 28.641 393.117 28.158 392.193 27.192C391.269 26.226 390.807 25.344 390.807 24.546ZM397.485 60.456C397.485 61.884 398.115 62.598 399.375 62.598C400.425 62.598 401.475 62.157 402.525 61.275L403.722 62.913C402.63 64.131 401.454 65.097 400.194 65.811C398.934 66.525 397.758 66.882 396.666 66.882C394.944 66.882 393.705 66.357 392.949 65.307C392.193 64.257 391.815 62.556 391.815 60.204V40.674C391.815 40.17 391.71 39.813 391.5 39.603C391.332 39.393 391.017 39.288 390.555 39.288H387.783L387.216 37.65C388.434 36.558 389.82 35.655 391.374 34.941C392.928 34.227 394.314 33.87 395.532 33.87C396.12 33.87 396.603 34.059 396.981 34.437C397.359 34.815 397.548 35.298 397.548 35.886L397.485 60.456ZM423.6 37.398C422.466 37.398 421.542 37.545 420.828 37.839C420.114 38.091 419.694 38.217 419.568 38.217C419.316 38.217 419.085 38.07 418.875 37.776C418.707 37.482 418.623 37.167 418.623 36.831C418.623 36.327 418.812 35.949 419.19 35.697C421.122 34.479 423.243 33.87 425.553 33.87C428.157 33.87 430.467 34.521 432.483 35.823C434.541 37.125 436.137 38.931 437.271 41.241C438.405 43.551 438.972 46.176 438.972 49.116C438.972 52.476 438.258 55.521 436.83 58.251C435.402 60.939 433.449 63.06 430.971 64.614C428.493 66.126 425.7 66.882 422.592 66.882C420.156 66.882 417.888 66.525 415.788 65.811C413.688 65.097 412.029 64.131 410.811 62.913V23.538C410.811 23.034 410.706 22.677 410.496 22.467C410.328 22.257 410.013 22.152 409.551 22.152H406.779L406.212 20.514C407.43 19.422 408.816 18.519 410.37 17.805C411.924 17.091 413.31 16.734 414.528 16.734C415.116 16.734 415.599 16.923 415.977 17.301C416.355 17.679 416.544 18.162 416.544 18.75V61.338C417.552 62.052 418.56 62.577 419.568 62.913C420.618 63.207 421.815 63.354 423.159 63.354C425.973 63.354 428.199 62.199 429.837 59.889C431.475 57.537 432.294 54.366 432.294 50.376C432.294 47.856 431.916 45.609 431.16 43.635C430.446 41.661 429.438 40.128 428.136 39.036C426.834 37.944 425.322 37.398 423.6 37.398ZM455.027 43.257C455.741 40.443 456.833 38.175 458.303 36.453C459.815 34.731 461.453 33.87 463.217 33.87C464.981 33.87 466.43 34.458 467.564 35.634C468.74 36.768 469.328 38.322 469.328 40.296C469.328 41.892 468.74 43.236 467.564 44.328C466.388 45.42 464.918 45.966 463.154 45.966C462.356 45.966 461.957 45.735 461.957 45.273C461.957 45.147 462.125 44.832 462.461 44.328C462.839 43.824 463.133 43.299 463.343 42.753C463.595 42.207 463.721 41.598 463.721 40.926C463.721 40.17 463.511 39.582 463.091 39.162C462.713 38.7 462.23 38.469 461.642 38.469C460.634 38.469 459.584 39.078 458.492 40.296C457.442 41.472 456.539 43.404 455.783 46.092C455.027 48.738 454.649 52.098 454.649 56.172C454.649 58.062 454.796 59.595 455.09 60.771C455.384 61.905 455.909 62.997 456.665 64.047L457.421 65.055L456.665 66H445.64L444.947 64.047L446.27 63.732C447.32 63.48 448.013 63.039 448.349 62.409C448.727 61.737 448.916 60.603 448.916 59.007V41.304C448.916 40.8 448.811 40.443 448.601 40.233C448.433 40.023 448.118 39.918 447.656 39.918H444.884L444.317 38.28C445.535 37.188 446.921 36.285 448.475 35.571C450.071 34.857 451.457 34.5 452.633 34.5C453.221 34.5 453.704 34.689 454.082 35.067C454.46 35.445 454.649 35.928 454.649 36.516V43.257H455.027ZM494.561 60.204C492.839 62.64 491.075 64.362 489.269 65.37C487.463 66.378 485.51 66.882 483.41 66.882C481.394 66.882 479.525 66.315 477.803 65.181C476.081 64.005 474.695 62.262 473.645 59.952C472.637 57.642 472.133 54.849 472.133 51.573C472.133 47.961 472.784 44.832 474.086 42.186C475.43 39.498 477.32 37.44 479.756 36.012C482.234 34.584 485.132 33.87 488.45 33.87C490.088 33.87 492.398 34.143 495.38 34.689C497.9 35.109 499.79 35.361 501.05 35.445L501.743 36.264L500.987 37.398C500.693 37.818 500.483 38.217 500.357 38.595C500.231 38.931 500.168 39.351 500.168 39.855V60.456C500.168 61.758 500.798 62.409 502.058 62.409C503.108 62.409 504.158 62.031 505.208 61.275L506.405 62.913C505.313 64.131 504.137 65.097 502.877 65.811C501.617 66.525 500.462 66.882 499.412 66.882C497.69 66.882 496.451 66.357 495.695 65.307C494.939 64.257 494.561 62.556 494.561 60.204ZM478.748 50.376C478.748 54.366 479.42 57.306 480.764 59.196C482.15 61.086 483.872 62.031 485.93 62.031C487.61 62.031 489.185 61.569 490.655 60.645C492.125 59.679 493.427 58.23 494.561 56.298V39.288C492.629 37.986 490.571 37.335 488.387 37.335C485.321 37.335 482.948 38.49 481.268 40.8C479.588 43.068 478.748 46.26 478.748 50.376ZM520.549 43.257C521.263 40.443 522.355 38.175 523.825 36.453C525.337 34.731 526.975 33.87 528.739 33.87C530.503 33.87 531.952 34.458 533.086 35.634C534.262 36.768 534.85 38.322 534.85 40.296C534.85 41.892 534.262 43.236 533.086 44.328C531.91 45.42 530.44 45.966 528.676 45.966C527.878 45.966 527.479 45.735 527.479 45.273C527.479 45.147 527.647 44.832 527.983 44.328C528.361 43.824 528.655 43.299 528.865 42.753C529.117 42.207 529.243 41.598 529.243 40.926C529.243 40.17 529.033 39.582 528.613 39.162C528.235 38.7 527.752 38.469 527.164 38.469C526.156 38.469 525.106 39.078 524.014 40.296C522.964 41.472 522.061 43.404 521.305 46.092C520.549 48.738 520.171 52.098 520.171 56.172C520.171 58.062 520.318 59.595 520.612 60.771C520.906 61.905 521.431 62.997 522.187 64.047L522.943 65.055L522.187 66H511.162L510.469 64.047L511.792 63.732C512.842 63.48 513.535 63.039 513.871 62.409C514.249 61.737 514.438 60.603 514.438 59.007V41.304C514.438 40.8 514.333 40.443 514.123 40.233C513.955 40.023 513.64 39.918 513.178 39.918H510.406L509.839 38.28C511.057 37.188 512.443 36.285 513.997 35.571C515.593 34.857 516.979 34.5 518.155 34.5C518.743 34.5 519.226 34.689 519.604 35.067C519.982 35.445 520.171 35.928 520.171 36.516V43.257H520.549ZM553.153 83.514C550.843 83.514 548.869 83.073 547.231 82.191C545.593 81.351 544.375 80.238 543.577 78.852C542.779 77.508 542.38 76.059 542.38 74.505C542.38 72.405 543.094 70.599 544.522 69.087C545.95 67.617 547.903 66.882 550.381 66.882C550.801 66.882 551.095 66.945 551.263 67.071C551.473 67.239 551.578 67.407 551.578 67.575C551.578 67.743 551.284 68.142 550.696 68.772C550.108 69.402 549.583 70.158 549.121 71.04C548.701 71.922 548.491 73.035 548.491 74.379C548.491 76.059 548.974 77.445 549.94 78.537C550.948 79.671 552.292 80.238 553.972 80.238C556.576 80.238 558.487 79.167 559.705 77.025C560.923 74.883 561.532 72.006 561.532 68.394V59.07C560.566 60.918 559.117 62.388 557.185 63.48C555.253 64.53 553.132 65.055 550.822 65.055C547.84 65.055 545.509 64.152 543.829 62.346C542.149 60.498 541.309 57.915 541.309 54.597V40.611C541.309 40.107 541.204 39.75 540.994 39.54C540.826 39.33 540.511 39.225 540.049 39.225H537.277L536.71 37.587C537.802 36.495 539.125 35.592 540.679 34.878C542.275 34.164 543.724 33.807 545.026 33.807C545.614 33.807 546.097 33.996 546.475 34.374C546.853 34.752 547.042 35.235 547.042 35.823V53.148C547.042 55.668 547.546 57.579 548.554 58.881C549.562 60.183 551.032 60.834 552.964 60.834C555.778 60.834 557.962 59.784 559.516 57.684C561.112 55.542 561.91 52.602 561.91 48.864C561.91 45.42 561.763 42.858 561.469 41.178C561.175 39.498 560.503 37.965 559.453 36.579L558.697 35.571L559.453 34.626L567.139 33.807V67.386C567.139 72.552 565.879 76.521 563.359 79.293C560.881 82.107 557.479 83.514 553.153 83.514Z" fill="white"/>
<path d="M352.974 0H263.026C263.012 0 263 0.011805 263 0.0263672V89.9736C263 89.9882 263.012 90 263.026 90H352.974C352.988 90 353 89.9882 353 89.9736V0.0263672C353 0.011805 352.988 0 352.974 0Z" fill="#F7DF1E"/>
<path d="M319.953 65.0391C321.711 68.0273 324.172 70.1367 328.215 70.1367C331.73 70.1367 334.016 68.3789 334.016 65.918C334.016 63.1055 331.73 62.0508 327.863 60.293L325.754 59.4141C319.602 56.7773 315.559 53.6133 315.559 46.7578C315.559 40.4297 320.305 35.5078 327.863 35.5078C333.312 35.5078 337.18 37.4414 339.816 42.3633L333.312 46.582C331.906 43.9453 330.324 42.8906 327.863 42.8906C325.402 42.8906 323.82 44.4727 323.82 46.582C323.82 49.043 325.402 50.0977 329.094 51.6797L331.203 52.5586C338.41 55.7227 342.453 58.7109 342.453 65.918C342.453 73.4766 336.477 77.6953 328.391 77.6953C320.48 77.6953 315.383 74.0039 312.922 69.082L319.953 65.0391ZM290.07 65.7422C291.477 68.0273 292.531 70.1367 295.52 70.1367C298.332 70.1367 300.09 69.082 300.09 64.8633V35.6836H308.527V64.5117C308.527 73.3008 303.43 77.168 295.871 77.168C289.016 77.168 285.148 73.6523 283.215 69.4336L290.07 65.7422Z" fill="black"/>
</svg>
