<svg width="527" height="111" viewBox="0 0 527 111" fill="none" xmlns="http://www.w3.org/2000/svg">
<path d="M7.497 82.315C5.901 82.315 4.767 81.475 4.095 79.795C3.465 78.115 3.15 75.427 3.15 71.731C3.15 66.271 3.927 61.084 5.481 56.17C5.859 54.952 6.468 54.07 7.308 53.524C8.19 52.936 9.408 52.642 10.962 52.642C11.802 52.642 12.39 52.747 12.726 52.957C13.062 53.167 13.23 53.566 13.23 54.154C13.23 54.826 12.915 56.338 12.285 58.69C11.865 60.37 11.529 61.84 11.277 63.1C11.025 64.318 10.815 65.851 10.647 67.699C11.781 64.423 13.125 61.651 14.679 59.383C16.275 57.115 17.892 55.435 19.53 54.343C21.21 53.209 22.785 52.642 24.255 52.642C25.725 52.642 26.754 52.978 27.342 53.65C27.972 54.322 28.287 55.351 28.287 56.737C28.287 58.081 27.888 60.517 27.09 64.045C26.754 65.557 26.523 66.691 26.397 67.447C28.497 62.281 30.828 58.522 33.39 56.17C35.952 53.818 38.346 52.642 40.572 52.642C43.302 52.642 44.667 54.007 44.667 56.737C44.667 58.375 44.205 61.336 43.281 65.62C42.483 69.274 42.084 71.689 42.084 72.865C42.084 74.545 42.693 75.385 43.911 75.385C44.751 75.385 45.738 74.881 46.872 73.873C48.048 72.823 49.602 71.143 51.534 68.833C52.038 68.245 52.605 67.951 53.235 67.951C53.781 67.951 54.201 68.203 54.495 68.707C54.831 69.211 54.999 69.904 54.999 70.786C54.999 72.466 54.6 73.768 53.802 74.692C51.996 76.918 50.043 78.745 47.943 80.173C45.885 81.601 43.533 82.315 40.887 82.315C38.745 82.315 37.128 81.706 36.036 80.488C34.944 79.228 34.398 77.422 34.398 75.07C34.398 73.894 34.692 71.794 35.28 68.77C35.826 66.124 36.099 64.297 36.099 63.289C36.099 62.617 35.868 62.281 35.406 62.281C34.86 62.281 34.083 62.995 33.075 64.423C32.067 65.809 31.059 67.657 30.051 69.967C29.043 72.277 28.224 74.713 27.594 77.275C27.132 79.291 26.586 80.635 25.956 81.307C25.368 81.979 24.402 82.315 23.058 82.315C21.672 82.315 20.622 81.664 19.908 80.362C19.236 79.018 18.9 77.401 18.9 75.511C18.9 73.915 19.11 71.605 19.53 68.581C19.866 65.893 20.034 64.129 20.034 63.289C20.034 62.617 19.803 62.281 19.341 62.281C18.711 62.281 17.913 63.037 16.947 64.549C15.981 66.061 15.036 67.993 14.112 70.345C13.23 72.697 12.516 75.007 11.97 77.275C11.508 79.249 10.962 80.593 10.332 81.307C9.744 81.979 8.799 82.315 7.497 82.315ZM71.9549 52.642C72.9209 52.642 73.5929 52.768 73.9709 53.02C74.3489 53.272 74.5379 53.692 74.5379 54.28C74.5379 55.288 73.9919 58.879 72.8999 65.053C71.9339 70.975 71.3669 74.482 71.1989 75.574C69.6449 86.368 67.5029 94.915 64.7729 101.215C62.0429 107.515 58.4099 110.665 53.8739 110.665C51.7319 110.665 49.9889 109.993 48.6449 108.649C47.3009 107.347 46.6289 105.625 46.6289 103.483C46.6289 101.509 47.0699 99.493 47.9519 97.435C48.8759 95.377 50.5559 93.004 52.9919 90.316C55.4699 87.67 58.9559 84.625 63.4499 81.181L63.6389 79.732C63.9329 78.178 64.2689 75.952 64.6469 73.054C63.8069 76.078 62.6309 78.388 61.1189 79.984C59.6069 81.538 58.0109 82.315 56.3309 82.315C54.4409 82.315 52.8869 81.454 51.6689 79.732C50.4929 77.968 49.9049 75.784 49.9049 73.18C49.9049 70.03 50.1149 67.153 50.5349 64.549C50.9549 61.903 51.6479 59.11 52.6139 56.17C53.0339 54.91 53.6219 54.007 54.3779 53.461C55.1339 52.915 56.3309 52.642 57.9689 52.642C58.8929 52.642 59.5229 52.789 59.8589 53.083C60.2369 53.377 60.4259 53.818 60.4259 54.406C60.4259 54.742 60.1949 55.876 59.7329 57.808C59.3129 59.362 58.9769 60.769 58.7249 62.029C58.3889 63.751 58.0949 65.41 57.8429 67.006C57.5909 68.56 57.4649 69.841 57.4649 70.849C57.4649 72.445 57.9059 73.243 58.7879 73.243C59.4179 73.243 60.1949 72.613 61.1189 71.353C62.0849 70.093 63.0929 68.182 64.1429 65.62C65.2349 63.058 66.2849 59.908 67.2929 56.17C67.6289 54.91 68.1329 54.007 68.8049 53.461C69.5189 52.915 70.5689 52.642 71.9549 52.642ZM54.5669 104.554C55.6169 104.554 56.7929 103.336 58.0949 100.9C59.3969 98.464 60.6989 94.411 62.0009 88.741C58.7669 91.471 56.4149 93.949 54.9449 96.175C53.5169 98.443 52.8029 100.417 52.8029 102.097C52.8029 102.811 52.9289 103.399 53.1809 103.861C53.4749 104.323 53.9369 104.554 54.5669 104.554ZM118.755 67.951C119.301 67.951 119.721 68.203 120.015 68.707C120.351 69.211 120.519 69.904 120.519 70.786C120.519 72.466 120.12 73.768 119.322 74.692C117.516 76.918 115.542 78.745 113.4 80.173C111.3 81.601 108.906 82.315 106.218 82.315C102.522 82.315 99.7715 80.635 97.9655 77.275C96.2015 73.915 95.3195 69.568 95.3195 64.234C95.3195 59.11 95.9705 53.272 97.2725 46.72C98.6165 40.168 100.569 34.54 103.131 29.836C105.735 25.132 108.822 22.78 112.392 22.78C114.408 22.78 115.983 23.725 117.117 25.615C118.293 27.463 118.881 30.13 118.881 33.616C118.881 38.614 117.495 44.41 114.723 51.004C111.951 57.598 108.192 64.129 103.446 70.597C103.74 72.319 104.223 73.558 104.895 74.314C105.567 75.028 106.449 75.385 107.541 75.385C109.263 75.385 110.775 74.902 112.077 73.936C113.379 72.928 115.038 71.227 117.054 68.833C117.558 68.245 118.125 67.951 118.755 67.951ZM111.006 29.017C110.04 29.017 108.948 30.76 107.73 34.246C106.512 37.732 105.441 42.058 104.517 47.224C103.593 52.39 103.089 57.346 103.005 62.092C105.987 57.178 108.36 52.264 110.124 47.35C111.888 42.394 112.77 37.879 112.77 33.805C112.77 30.613 112.182 29.017 111.006 29.017ZM123.68 48.484C121.916 48.484 120.593 48.085 119.711 47.287C118.829 46.447 118.388 45.292 118.388 43.822C118.388 42.352 118.955 41.134 120.089 40.168C121.265 39.16 122.714 38.656 124.436 38.656C125.99 38.656 127.25 39.034 128.216 39.79C129.182 40.546 129.665 41.617 129.665 43.003C129.665 44.683 129.119 46.027 128.027 47.035C126.935 48.001 125.486 48.484 123.68 48.484ZM123.176 82.315C120.446 82.315 118.451 81.349 117.191 79.417C115.973 77.485 115.364 74.923 115.364 71.731C115.364 69.841 115.595 67.426 116.057 64.486C116.561 61.504 117.191 58.732 117.947 56.17C118.325 54.826 118.829 53.902 119.459 53.398C120.089 52.894 121.097 52.642 122.483 52.642C124.625 52.642 125.696 53.356 125.696 54.784C125.696 55.834 125.297 58.27 124.499 62.092C123.491 66.712 122.987 69.841 122.987 71.479C122.987 72.739 123.155 73.705 123.491 74.377C123.827 75.049 124.394 75.385 125.192 75.385C125.948 75.385 126.893 74.86 128.027 73.81C129.161 72.76 130.673 71.101 132.563 68.833C133.067 68.245 133.634 67.951 134.264 67.951C134.81 67.951 135.23 68.203 135.524 68.707C135.86 69.211 136.028 69.904 136.028 70.786C136.028 72.466 135.629 73.768 134.831 74.692C130.673 79.774 126.788 82.315 123.176 82.315ZM178.748 67.951C179.294 67.951 179.714 68.203 180.008 68.707C180.344 69.211 180.512 69.904 180.512 70.786C180.512 72.466 180.113 73.768 179.315 74.692C177.509 76.918 175.535 78.745 173.393 80.173C171.251 81.601 168.794 82.315 166.022 82.315C160.898 82.315 157.328 80.173 155.312 75.889C154.22 77.653 152.771 79.165 150.965 80.425C149.159 81.685 147.227 82.315 145.169 82.315C141.179 82.315 138.239 80.698 136.349 77.464C134.501 74.188 133.577 69.778 133.577 64.234C133.577 62.176 133.682 59.887 133.892 57.367H131.309C130.049 57.367 129.188 57.136 128.726 56.674C128.306 56.212 128.096 55.477 128.096 54.469C128.096 52.117 129.041 50.941 130.931 50.941H134.774C135.572 46.489 136.685 42.457 138.113 38.845C139.541 35.233 141.263 32.356 143.279 30.214C145.295 28.072 147.479 27.001 149.831 27.001C151.595 27.001 152.981 27.778 153.989 29.332C154.997 30.886 155.501 32.839 155.501 35.191C155.501 41.113 153.212 46.363 148.634 50.941H154.367C155.165 46.489 156.278 42.457 157.706 38.845C159.134 35.233 160.856 32.356 162.872 30.214C164.888 28.072 167.072 27.001 169.424 27.001C171.188 27.001 172.574 27.778 173.582 29.332C174.59 30.886 175.094 32.839 175.094 35.191C175.094 41.113 172.805 46.363 168.227 50.941H173.96C174.632 50.941 175.115 51.088 175.409 51.382C175.703 51.676 175.85 52.222 175.85 53.02C175.85 55.918 173.477 57.367 168.731 57.367H161.108C160.982 59.383 160.919 61.441 160.919 63.541C160.919 67.909 161.423 70.975 162.431 72.739C163.481 74.503 165.119 75.385 167.345 75.385C169.151 75.385 170.747 74.839 172.133 73.747C173.519 72.655 175.157 71.017 177.047 68.833C177.551 68.245 178.118 67.951 178.748 67.951ZM148.13 33.049C147.5 33.049 146.786 33.847 145.988 35.443C145.232 36.997 144.497 39.181 143.783 41.995C143.111 44.767 142.544 47.854 142.082 51.256C144.56 49.114 146.408 46.72 147.626 44.074C148.886 41.386 149.516 38.95 149.516 36.766C149.516 34.288 149.054 33.049 148.13 33.049ZM167.723 33.049C167.093 33.049 166.379 33.847 165.581 35.443C164.825 36.997 164.09 39.181 163.376 41.995C162.704 44.767 162.137 47.854 161.675 51.256C164.153 49.114 166.001 46.72 167.219 44.074C168.479 41.386 169.109 38.95 169.109 36.766C169.109 34.288 168.647 33.049 167.723 33.049ZM146.492 75.385C147.752 75.385 149.012 74.797 150.272 73.621C151.532 72.445 152.603 70.996 153.485 69.274C153.275 67.972 153.17 66.292 153.17 64.234C153.17 62.176 153.275 59.887 153.485 57.367H141.515C141.389 59.383 141.326 61.441 141.326 63.541C141.326 67.783 141.767 70.828 142.649 72.676C143.573 74.482 144.854 75.385 146.492 75.385ZM199.29 67.951C199.836 67.951 200.256 68.203 200.55 68.707C200.886 69.211 201.054 69.904 201.054 70.786C201.054 72.466 200.655 73.768 199.857 74.692C198.051 76.918 196.077 78.745 193.935 80.173C191.835 81.601 189.441 82.315 186.753 82.315C183.057 82.315 180.306 80.635 178.5 77.275C176.736 73.915 175.854 69.568 175.854 64.234C175.854 59.11 176.505 53.272 177.807 46.72C179.151 40.168 181.104 34.54 183.666 29.836C186.27 25.132 189.357 22.78 192.927 22.78C194.943 22.78 196.518 23.725 197.652 25.615C198.828 27.463 199.416 30.13 199.416 33.616C199.416 38.614 198.03 44.41 195.258 51.004C192.486 57.598 188.727 64.129 183.981 70.597C184.275 72.319 184.758 73.558 185.43 74.314C186.102 75.028 186.984 75.385 188.076 75.385C189.798 75.385 191.31 74.902 192.612 73.936C193.914 72.928 195.573 71.227 197.589 68.833C198.093 68.245 198.66 67.951 199.29 67.951ZM191.541 29.017C190.575 29.017 189.483 30.76 188.265 34.246C187.047 37.732 185.976 42.058 185.052 47.224C184.128 52.39 183.624 57.346 183.54 62.092C186.522 57.178 188.895 52.264 190.659 47.35C192.423 42.394 193.305 37.879 193.305 33.805C193.305 30.613 192.717 29.017 191.541 29.017ZM218.516 69.841C219.062 69.841 219.482 70.093 219.776 70.597C220.112 71.101 220.28 71.794 220.28 72.676C220.28 74.188 219.923 75.49 219.209 76.582C218.033 78.388 216.479 79.795 214.547 80.803C212.657 81.811 210.389 82.315 207.743 82.315C203.711 82.315 200.582 81.118 198.356 78.724C196.13 76.288 195.016 73.012 195.016 68.896C195.016 65.998 195.626 63.31 196.844 60.832C198.062 58.312 199.742 56.317 201.884 54.847C204.068 53.377 206.525 52.642 209.255 52.642C211.691 52.642 213.644 53.377 215.114 54.847C216.584 56.275 217.319 58.228 217.319 60.706C217.319 63.604 216.269 66.103 214.169 68.203C212.111 70.261 208.583 71.899 203.585 73.117C204.593 75.049 206.294 76.015 208.688 76.015C210.41 76.015 211.817 75.616 212.909 74.818C214.043 74.02 215.345 72.676 216.815 70.786C217.319 70.156 217.886 69.841 218.516 69.841ZM208.184 58.816C206.63 58.816 205.307 59.719 204.215 61.525C203.165 63.331 202.64 65.515 202.64 68.077V68.203C205.118 67.615 207.071 66.733 208.499 65.557C209.927 64.381 210.641 63.016 210.641 61.462C210.641 60.664 210.41 60.034 209.948 59.572C209.528 59.068 208.94 58.816 208.184 58.816Z" fill="black"/>
<path d="M371.901 67.951C372.447 67.951 372.867 68.203 373.161 68.707C373.497 69.211 373.665 69.904 373.665 70.786C373.665 72.466 373.266 73.768 372.468 74.692C370.662 76.918 368.688 78.745 366.546 80.173C364.446 81.601 362.052 82.315 359.364 82.315C355.668 82.315 352.917 80.635 351.111 77.275C349.347 73.915 348.465 69.568 348.465 64.234C348.465 59.11 349.116 53.272 350.418 46.72C351.762 40.168 353.715 34.54 356.277 29.836C358.881 25.132 361.968 22.78 365.538 22.78C367.554 22.78 369.129 23.725 370.263 25.615C371.439 27.463 372.027 30.13 372.027 33.616C372.027 38.614 370.641 44.41 367.869 51.004C365.097 57.598 361.338 64.129 356.592 70.597C356.886 72.319 357.369 73.558 358.041 74.314C358.713 75.028 359.595 75.385 360.687 75.385C362.409 75.385 363.921 74.902 365.223 73.936C366.525 72.928 368.184 71.227 370.2 68.833C370.704 68.245 371.271 67.951 371.901 67.951ZM364.152 29.017C363.186 29.017 362.094 30.76 360.876 34.246C359.658 37.732 358.587 42.058 357.663 47.224C356.739 52.39 356.235 57.346 356.151 62.092C359.133 57.178 361.506 52.264 363.27 47.35C365.034 42.394 365.916 37.879 365.916 33.805C365.916 30.613 365.328 29.017 364.152 29.017ZM376.826 48.484C375.062 48.484 373.739 48.085 372.857 47.287C371.975 46.447 371.534 45.292 371.534 43.822C371.534 42.352 372.101 41.134 373.235 40.168C374.411 39.16 375.86 38.656 377.582 38.656C379.136 38.656 380.396 39.034 381.362 39.79C382.328 40.546 382.811 41.617 382.811 43.003C382.811 44.683 382.265 46.027 381.173 47.035C380.081 48.001 378.632 48.484 376.826 48.484ZM376.322 82.315C373.592 82.315 371.597 81.349 370.337 79.417C369.119 77.485 368.51 74.923 368.51 71.731C368.51 69.841 368.741 67.426 369.203 64.486C369.707 61.504 370.337 58.732 371.093 56.17C371.471 54.826 371.975 53.902 372.605 53.398C373.235 52.894 374.243 52.642 375.629 52.642C377.771 52.642 378.842 53.356 378.842 54.784C378.842 55.834 378.443 58.27 377.645 62.092C376.637 66.712 376.133 69.841 376.133 71.479C376.133 72.739 376.301 73.705 376.637 74.377C376.973 75.049 377.54 75.385 378.338 75.385C379.094 75.385 380.039 74.86 381.173 73.81C382.307 72.76 383.819 71.101 385.709 68.833C386.213 68.245 386.78 67.951 387.41 67.951C387.956 67.951 388.376 68.203 388.67 68.707C389.006 69.211 389.174 69.904 389.174 70.786C389.174 72.466 388.775 73.768 387.977 74.692C383.819 79.774 379.934 82.315 376.322 82.315ZM417.593 62.659C418.139 62.659 418.559 62.932 418.853 63.478C419.147 64.024 419.294 64.717 419.294 65.557C419.294 66.607 419.147 67.426 418.853 68.014C418.559 68.56 418.097 68.938 417.467 69.148C414.947 70.03 412.175 70.534 409.151 70.66C408.311 74.146 406.715 76.96 404.363 79.102C402.053 81.244 399.491 82.315 396.677 82.315C392.435 82.315 389.348 80.698 387.416 77.464C385.484 74.23 384.518 69.547 384.518 63.415C384.518 57.997 385.19 52.117 386.534 45.775C387.878 39.391 389.831 33.973 392.393 29.521C394.997 25.027 398.084 22.78 401.654 22.78C403.586 22.78 405.14 23.62 406.316 25.3C407.492 26.938 408.08 29.08 408.08 31.726C408.08 35.17 407.429 38.593 406.127 41.995C404.825 45.397 402.662 48.967 399.638 52.705C402.452 52.915 404.741 54.091 406.505 56.233C408.269 58.333 409.319 60.937 409.655 64.045C411.629 63.919 413.981 63.499 416.711 62.785C416.963 62.701 417.257 62.659 417.593 62.659ZM400.205 29.017C399.365 29.017 398.441 30.277 397.433 32.797C396.467 35.275 395.564 38.656 394.724 42.94C393.884 47.224 393.254 51.907 392.834 56.989C395.606 51.907 397.811 47.434 399.449 43.57C401.129 39.664 401.969 36.199 401.969 33.175C401.969 31.831 401.801 30.802 401.465 30.088C401.171 29.374 400.751 29.017 400.205 29.017ZM396.929 75.637C398.231 75.637 399.386 75.091 400.394 73.999C401.402 72.907 402.074 71.332 402.41 69.274C401.108 68.392 400.1 67.237 399.386 65.809C398.714 64.381 398.378 62.869 398.378 61.273C398.378 60.685 398.462 59.887 398.63 58.879H398.441C396.719 58.879 395.27 59.74 394.094 61.462C392.96 63.142 392.393 65.41 392.393 68.266C392.393 70.66 392.834 72.487 393.716 73.747C394.64 75.007 395.711 75.637 396.929 75.637ZM418.327 82.315C416.731 82.315 415.597 81.475 414.925 79.795C414.295 78.115 413.98 75.427 413.98 71.731C413.98 66.271 414.757 61.084 416.311 56.17C416.689 54.952 417.298 54.07 418.138 53.524C419.02 52.936 420.238 52.642 421.792 52.642C422.632 52.642 423.22 52.747 423.556 52.957C423.892 53.167 424.06 53.566 424.06 54.154C424.06 54.826 423.745 56.338 423.115 58.69C422.695 60.37 422.359 61.84 422.107 63.1C421.855 64.36 421.645 65.914 421.477 67.762C422.863 64.15 424.417 61.21 426.139 58.942C427.861 56.674 429.541 55.057 431.179 54.091C432.859 53.125 434.392 52.642 435.778 52.642C438.508 52.642 439.873 54.007 439.873 56.737C439.873 57.283 439.684 58.606 439.306 60.706C438.97 62.386 438.802 63.436 438.802 63.856C438.802 65.326 439.327 66.061 440.377 66.061C441.553 66.061 443.065 65.137 444.913 63.289C445.459 62.743 446.026 62.47 446.614 62.47C447.16 62.47 447.58 62.722 447.874 63.226C448.21 63.688 448.378 64.318 448.378 65.116C448.378 66.67 447.958 67.888 447.118 68.77C445.942 69.988 444.556 71.038 442.96 71.92C441.406 72.76 439.747 73.18 437.983 73.18C435.757 73.18 434.056 72.613 432.88 71.479C431.746 70.345 431.179 68.812 431.179 66.88C431.179 66.25 431.242 65.62 431.368 64.99C431.452 64.15 431.494 63.583 431.494 63.289C431.494 62.617 431.263 62.281 430.801 62.281C430.171 62.281 429.331 62.995 428.281 64.423C427.273 65.809 426.265 67.657 425.257 69.967C424.249 72.277 423.43 74.713 422.8 77.275C422.338 79.249 421.792 80.593 421.162 81.307C420.574 81.979 419.629 82.315 418.327 82.315ZM450.273 82.315C447.669 82.315 445.59 81.37 444.036 79.48C442.482 77.59 441.705 75.112 441.705 72.046C441.705 68.686 442.482 65.515 444.036 62.533C445.59 59.509 447.648 57.094 450.21 55.288C452.814 53.44 455.565 52.516 458.463 52.516C459.387 52.516 459.996 52.705 460.29 53.083C460.626 53.419 460.899 54.049 461.109 54.973C461.991 54.805 462.915 54.721 463.881 54.721C465.939 54.721 466.968 55.456 466.968 56.926C466.968 57.808 466.653 59.908 466.023 63.226C465.057 68.056 464.574 71.416 464.574 73.306C464.574 73.936 464.721 74.44 465.015 74.818C465.351 75.196 465.771 75.385 466.275 75.385C467.073 75.385 468.039 74.881 469.173 73.873C470.307 72.823 471.84 71.143 473.772 68.833C474.276 68.245 474.843 67.951 475.473 67.951C476.019 67.951 476.439 68.203 476.733 68.707C477.069 69.211 477.237 69.904 477.237 70.786C477.237 72.466 476.838 73.768 476.04 74.692C474.318 76.834 472.491 78.64 470.559 80.11C468.627 81.58 466.758 82.315 464.952 82.315C463.566 82.315 462.285 81.853 461.109 80.929C459.975 79.963 459.114 78.661 458.526 77.023C456.342 80.551 453.591 82.315 450.273 82.315ZM452.541 75.952C453.465 75.952 454.347 75.406 455.187 74.314C456.027 73.222 456.636 71.773 457.014 69.967L459.345 58.375C457.581 58.417 455.943 59.089 454.431 60.391C452.961 61.651 451.785 63.331 450.903 65.431C450.021 67.531 449.58 69.757 449.58 72.109C449.58 73.411 449.832 74.377 450.336 75.007C450.882 75.637 451.617 75.952 452.541 75.952ZM476.59 82.315C474.994 82.315 473.86 81.475 473.188 79.795C472.558 78.115 472.243 75.427 472.243 71.731C472.243 66.271 473.02 61.084 474.574 56.17C474.952 54.952 475.561 54.07 476.401 53.524C477.283 52.936 478.501 52.642 480.055 52.642C480.895 52.642 481.483 52.747 481.819 52.957C482.155 53.167 482.323 53.566 482.323 54.154C482.323 54.826 482.008 56.338 481.378 58.69C480.958 60.37 480.622 61.84 480.37 63.1C480.118 64.36 479.908 65.914 479.74 67.762C481.126 64.15 482.68 61.21 484.402 58.942C486.124 56.674 487.804 55.057 489.442 54.091C491.122 53.125 492.655 52.642 494.041 52.642C496.771 52.642 498.136 54.007 498.136 56.737C498.136 57.283 497.947 58.606 497.569 60.706C497.233 62.386 497.065 63.436 497.065 63.856C497.065 65.326 497.59 66.061 498.64 66.061C499.816 66.061 501.328 65.137 503.176 63.289C503.722 62.743 504.289 62.47 504.877 62.47C505.423 62.47 505.843 62.722 506.137 63.226C506.473 63.688 506.641 64.318 506.641 65.116C506.641 66.67 506.221 67.888 505.381 68.77C504.205 69.988 502.819 71.038 501.223 71.92C499.669 72.76 498.01 73.18 496.246 73.18C494.02 73.18 492.319 72.613 491.143 71.479C490.009 70.345 489.442 68.812 489.442 66.88C489.442 66.25 489.505 65.62 489.631 64.99C489.715 64.15 489.757 63.583 489.757 63.289C489.757 62.617 489.526 62.281 489.064 62.281C488.434 62.281 487.594 62.995 486.544 64.423C485.536 65.809 484.528 67.657 483.52 69.967C482.512 72.277 481.693 74.713 481.063 77.275C480.601 79.249 480.055 80.593 479.425 81.307C478.837 81.979 477.892 82.315 476.59 82.315ZM522.837 52.642C523.803 52.642 524.475 52.768 524.853 53.02C525.231 53.272 525.42 53.692 525.42 54.28C525.42 55.288 524.874 58.879 523.782 65.053C522.816 70.975 522.249 74.482 522.081 75.574C520.527 86.368 518.385 94.915 515.655 101.215C512.925 107.515 509.292 110.665 504.756 110.665C502.614 110.665 500.871 109.993 499.527 108.649C498.183 107.347 497.511 105.625 497.511 103.483C497.511 101.509 497.952 99.493 498.834 97.435C499.758 95.377 501.438 93.004 503.874 90.316C506.352 87.67 509.838 84.625 514.332 81.181L514.521 79.732C514.815 78.178 515.151 75.952 515.529 73.054C514.689 76.078 513.513 78.388 512.001 79.984C510.489 81.538 508.893 82.315 507.213 82.315C505.323 82.315 503.769 81.454 502.551 79.732C501.375 77.968 500.787 75.784 500.787 73.18C500.787 70.03 500.997 67.153 501.417 64.549C501.837 61.903 502.53 59.11 503.496 56.17C503.916 54.91 504.504 54.007 505.26 53.461C506.016 52.915 507.213 52.642 508.851 52.642C509.775 52.642 510.405 52.789 510.741 53.083C511.119 53.377 511.308 53.818 511.308 54.406C511.308 54.742 511.077 55.876 510.615 57.808C510.195 59.362 509.859 60.769 509.607 62.029C509.271 63.751 508.977 65.41 508.725 67.006C508.473 68.56 508.347 69.841 508.347 70.849C508.347 72.445 508.788 73.243 509.67 73.243C510.3 73.243 511.077 72.613 512.001 71.353C512.967 70.093 513.975 68.182 515.025 65.62C516.117 63.058 517.167 59.908 518.175 56.17C518.511 54.91 519.015 54.007 519.687 53.461C520.401 52.915 521.451 52.642 522.837 52.642ZM505.449 104.554C506.499 104.554 507.675 103.336 508.977 100.9C510.279 98.464 511.581 94.411 512.883 88.741C509.649 91.471 507.297 93.949 505.827 96.175C504.399 98.443 503.685 100.417 503.685 102.097C503.685 102.811 503.811 103.399 504.063 103.861C504.357 104.323 504.819 104.554 505.449 104.554Z" fill="black"/>
<path d="M326.974 11H237.026C237.012 11 237 11.0118 237 11.0264V100.974C237 100.988 237.012 101 237.026 101H326.974C326.988 101 327 100.988 327 100.974V11.0264C327 11.0118 326.988 11 326.974 11Z" fill="#F7DF1E"/>
<path d="M293.953 76.0391C295.711 79.0273 298.172 81.1367 302.215 81.1367C305.73 81.1367 308.016 79.3789 308.016 76.918C308.016 74.1055 305.73 73.0508 301.863 71.293L299.754 70.4141C293.602 67.7773 289.559 64.6133 289.559 57.7578C289.559 51.4297 294.305 46.5078 301.863 46.5078C307.312 46.5078 311.18 48.4414 313.816 53.3633L307.312 57.582C305.906 54.9453 304.324 53.8906 301.863 53.8906C299.402 53.8906 297.82 55.4727 297.82 57.582C297.82 60.043 299.402 61.0977 303.094 62.6797L305.203 63.5586C312.41 66.7227 316.453 69.7109 316.453 76.918C316.453 84.4766 310.477 88.6953 302.391 88.6953C294.48 88.6953 289.383 85.0039 286.922 80.082L293.953 76.0391ZM264.07 76.7422C265.477 79.0273 266.531 81.1367 269.52 81.1367C272.332 81.1367 274.09 80.082 274.09 75.8633V46.6836H282.527V75.5117C282.527 84.3008 277.43 88.168 269.871 88.168C263.016 88.168 259.148 84.6523 257.215 80.4336L264.07 76.7422Z" fill="black"/>
</svg>
